# xmcd
#
# Track frame offsets:
#	150
#	15306
#	28412
#	39881
#	50780
#	66805
#	77700
#	88831
#	102310
#	121673
#	134191
#	143108
#	167330
#	178398
#	196006
#	208040
#	231420
#	250386
#	262638
#	277592
#	292590
#	301832
#	313776
#
# Disc length: 4412 seconds
#
# Revision: 1
# Processed by: cddbd v1.5.2PL0 Copyright (c) Steve Scherf et al.
# Submitted via: audiograbber 1.83.01
#
DISCID=3c113a17
DTITLE=Die deutschen Meister des Swing  - CD1 - Unsere Lieblingsmelodien
DYEAR=2007
DGENRE=Swing
TTITLE0=Max Greger - Sax In Love
TTITLE1=Paul Kuhn - Es Gibt Kein Bier Auf Hawaii
TTITLE2=Hugo Strasser - Somewhere, My Love
TTITLE3=Paul Kuhn - Die Farbe Der Liebe
TTITLE4=Max Greger - (Everything I Do) I Do It For You
TTITLE5=Paul Kuhn - Der Mann Am Klavier
TTITLE6=Max Greger - You Are So Beautiful
TTITLE7=Max Greger - Johnson Rag
TTITLE8=Hugo Strasser - Misty
TTITLE9=Paul Kuhn - Bier, Bier, Bier Ist Die Seele Vom Klavier
TTITLE10=Max Greger - Yakety Sax
TTITLE11=Hugo Strasser - Fly Me To The Moon
TTITLE12=Paul Kuhn - Der Pianist Vom Grand Hotel
TTITLE13=Hugo Strasser - Oh, Lady Be Good
TTITLE14=Hugo Strasser - Who's Sorry Now
TTITLE15=Max Greger - Bridge Over Troubled Water
TTITLE16=Hugo Strasser - Don't Get Around Much Anymore
TTITLE17=Paul Kuhn - Sugar Blues
TTITLE18=Hugo Strasser - Once In A While
TTITLE19=Max Greger - Unchained Melody
TTITLE20=Max Greger - Raindrops Keep Fallin' On My Head
TTITLE21=Paul Kuhn - Gib Dem Bub Die Geige Nicht
TTITLE22=Max Greger - Midnight In Munich
EXTD=
EXTT0=
EXTT1=
EXTT2=
EXTT3=
EXTT4=
EXTT5=
EXTT6=
EXTT7=
EXTT8=
EXTT9=
EXTT10=
EXTT11=
EXTT12=
EXTT13=
EXTT14=
EXTT15=
EXTT16=
EXTT17=
EXTT18=
EXTT19=
EXTT20=
EXTT21=
EXTT22=
PLAYORDER=
